<?xml version="1.0" encoding="utf-8"?>
<!-- Generator: Adobe Illustrator 17.1.0, SVG Export Plug-In . SVG Version: 6.00 Build 0)  -->
<!DOCTYPE svg PUBLIC "-//W3C//DTD SVG 1.1//EN" "http://www.w3.org/Graphics/SVG/1.1/DTD/svg11.dtd">
<svg version="1.1" id="Layer_1" xmlns="http://www.w3.org/2000/svg" xmlns:xlink="http://www.w3.org/1999/xlink" x="0px" y="0px"
	 viewBox="0 0 40.8 40.8" enable-background="new 0 0 40.8 40.8" xml:space="preserve">
<path fill="#171F38" d="M0,20.4C0,9.1,9.1,0,20.4,0s20.4,9.1,20.4,20.4s-9.1,20.4-20.4,20.4S0,31.6,0,20.4"/>
<g>
	<g>
		<path fill="#FFFFFF" d="M14.7,28.4V16.4c0,0,5.7-4.3,6-6C21,8.7,21.3,6,22.8,6c1.5,0,5.1,0.8,3.2,6c0,0-1.3,1.8-0.7,2.1
			c0.6,0.3,5.3,0,5.3,0s2.4,1.7,1.4,4.9c0,0,0.5,2.6-0.3,3.4c0,0,0,3.1-1.3,3.8c0,0,0,4.5-2.3,4.2C25.8,30.2,15.1,28.9,14.7,28.4z"
			/>
		<path fill="#FFFFFF" d="M6.8,16.4v11.9h6.4V16.4H6.8z M10,26.5c-0.4,0-0.8-0.4-0.8-0.8c0-0.4,0.3-0.8,0.8-0.8
			c0.4,0,0.8,0.4,0.8,0.8C10.8,26.2,10.4,26.5,10,26.5z"/>
	</g>
</g>
</svg>
