<?xml version="1.0" encoding="utf-8"?>
<!-- Generator: Adobe Illustrator 17.1.0, SVG Export Plug-In . SVG Version: 6.00 Build 0)  -->
<!DOCTYPE svg PUBLIC "-//W3C//DTD SVG 1.1//EN" "http://www.w3.org/Graphics/SVG/1.1/DTD/svg11.dtd">
<svg version="1.1" id="Layer_1" xmlns="http://www.w3.org/2000/svg" xmlns:xlink="http://www.w3.org/1999/xlink" x="0px" y="0px"
	 viewBox="0 0 41.3 40.8" enable-background="new 0 0 41.3 40.8" xml:space="preserve">
<circle fill="#EE8832" cx="20.9" cy="20.4" r="20.4"/>
<path fill="#FFFFFF" d="M21.5,8.7c-7.6,0-13.8,4.4-13.8,9.9c0,3,1.9,5.7,4.8,7.5c-0.4,1.4-1.6,4.7-3.1,5.1c0,0-0.5,1.5,1.5,1.5
	c2,0,7.2-2.2,9.3-4.3c0.4,0,0.9,0,1.3,0c7.6,0,13.8-4.4,13.8-9.9C35.3,13.1,29.1,8.7,21.5,8.7z"/>
<circle fill="#A7844B" cx="20.4" cy="20.4" r="20.4"/>
<g>
	<path fill="#FFFFFF" d="M28.5,9.4c-1.6-1.5-4.4-1.1-6.3,0.9c-0.9,1-1.5,2.2-1.6,3.3h0c-0.2-1.3-1-2.6-2.2-3.5
		c-2.2-1.7-5.1-1.6-6.4,0.1c-1.3,1.7-0.6,4.5,1.6,6.2c0.7,0.5,1.5,0.9,2.3,1.1c0.2,0.1,0.4,0.2,0.7,0.2h7.9c0.3,0,0.5-0.1,0.8-0.2
		c0.9-0.3,1.9-0.8,2.7-1.6C29.8,13.7,30.1,10.9,28.5,9.4z M17.6,14.1c-0.4,0.6-1.8-0.1-2.8-0.4c-0.9-0.3-1-1.5-0.5-2
		c0.4-0.6,1.6-0.8,2.1,0C17,12.5,18.1,13.5,17.6,14.1z M25.7,13.7c-1,0.3-2.3,0.9-2.7,0.4c-0.4-0.6,0.6-1.6,1.2-2.5
		c0.5-0.7,1.7-0.4,2.1,0.2C26.8,12.4,26.6,13.5,25.7,13.7z"/>
	<polygon fill="#FFFFFF" points="23.3,16.4 23.3,28.5 17.4,28.5 17.4,16.4 7.6,16.4 7.6,22.9 9.6,22.9 9.6,31.5 31.3,31.5 
		31.3,22.9 33.1,22.9 33.1,16.4 	"/>
</g>
<rect x="17.4" y="16.4" fill="#A7844B" width="5.9" height="12.1"/>
</svg>
