<?xml version="1.0" encoding="utf-8"?>
<!-- Generator: Adobe Illustrator 17.1.0, SVG Export Plug-In . SVG Version: 6.00 Build 0)  -->
<!DOCTYPE svg PUBLIC "-//W3C//DTD SVG 1.1//EN" "http://www.w3.org/Graphics/SVG/1.1/DTD/svg11.dtd">
<svg version="1.1" id="Layer_1" xmlns="http://www.w3.org/2000/svg" xmlns:xlink="http://www.w3.org/1999/xlink" x="0px" y="0px"
	 viewBox="0 0 270.4 57" enable-background="new 0 0 270.4 57" xml:space="preserve">
<g>
	<path fill="#FFFFFF" d="M21.5,13.5l1.6,2.4l0.4-0.4l0.3,0.4l-0.1,2.3c0,0.5-0.8,0.8-2.2,1v-0.4c-2.3,0.6-4.2,1.5-5.6,2.7l-1-0.4
		l0.3,0.4l0,0.4L11,25.4l0-0.4l1.5-1.8l-0.7-0.1c-0.1,1-0.6,1.5-1.5,1.4c-0.1,1.7-0.9,3.3-2.5,4.8c-1.8,2.3-2.8,4.7-3,7l-0.1,0.8
		c0.9,1.3,2.3,2,4.2,2.2l2.9,0.2c3.4,0.2,9.4-0.5,18.2-2.2c0.9,0.1,1.9-0.3,3-1l2.1,0.5c0.1-0.7,0.3-1.1,0.8-1.1l0.7,0.1
		c-0.1,1.3-0.7,1.9-1.9,1.8l0,0.4l0.3,0.4l0,0.4l-5.9,1.5l-0.4-0.4c-0.2,0.7-1.2,1.1-2.9,1l-0.3-0.4l-0.4,0l-0.8,1.8l-0.3-0.4
		L23,41.7l-2.2,1l-0.3-0.4l-0.4,0l-6.2,1.1l0-0.4l-4.8,0.8C2.7,42.4-0.3,38.9,0,33.4c3.3-7.3,8.1-12.8,14.4-16.5
		C16.8,14.8,19.1,13.6,21.5,13.5z M5.3,30.2L5.9,31L6,29.5L5.3,30.2z M6.4,29.1c0.8-0.4,2-1.7,3.5-3.9H9.5
		C7.5,27.2,6.4,28.5,6.4,29.1z M38.2,35.5L40,36v0.4l-0.7-0.1c-0.1,0.7-0.3,1.1-0.8,1.1l-2.2-0.1l0-0.4c0.7,0,1.1-0.2,1.1-0.7
		l-0.3-0.4l0.4-0.3L38.2,35.5z M42.6,34.3l1.8,0.1l0,0.8L40,35.7L42.6,34.3z"/>
	<path fill="#FFFFFF" d="M36.8,13.3c1,0,1.9,0.9,2.7,2.7v0.8c-2.9,2.6-4.5,8.5-4.7,17.5V37l0.6,0.8c3.7-4.8,6.1-7.3,7.1-7.3
		c3,0,6.1,4.3,9.1,13c1.1,1.8,2.9,3.1,5.2,3.8v0.4l-1.9,1.9h-1.1c-2.6,0-5.7-4.6-9.3-13.7l-1.4-0.8c-0.7,0-2.9,2.7-6.8,8l-1.4,0.4
		c-2.4-1.3-3.5-4.8-3.5-10.3c0.9-9.1,2.2-15.7,4.1-19.8H36.8z"/>
	<path fill="#FFFFFF" d="M60.9,29.3c1.9,0.4,2.9,1.3,2.9,2.7c-0.4,0.8-0.8,1.3-1.1,1.3l-1.2-0.3l-4.6,10.3l-2,0.3h-0.6
		c-1.9-1.7-2.9-4.3-2.9-7.6v-1.1c0-2,0.3-3,0.9-3h0.9c1.1,0,1.8,2.1,2,6.3h0.3C57.4,32.3,59.2,29.3,60.9,29.3z"/>
	<path fill="#FFFFFF" d="M65.1,14.1h1c1.5,0,2.3,0.8,2.3,2.4v1c-0.2,0.7-0.9,1-2,1c-0.7,0-1.5-0.8-2.3-2.3
		C64.4,14.8,64.7,14.1,65.1,14.1z M65.1,29.9h1.4c0.4,0.1,0.9,0.9,1.4,2.4L67.7,37c0,1.6,0.6,3.3,1.7,5.1v0.7l-0.8,1h-0.9
		c-2.3,0-3.4-2.3-3.4-6.8v-2.7C64.3,31.4,64.6,29.9,65.1,29.9z"/>
	<path fill="#FFFFFF" d="M75.7,29.8h2.4c2.1,0,3.1,1.1,3.1,3.2l-1,0.3l-2.7-0.5L77.4,33h-0.2l-0.3-0.3h-0.3L76,33l-0.3-0.3V33
		l-0.3-0.3h-0.2l-1.9,1c0.1,0.7,2.2,2.7,6.3,6.1c1,1.2,1.4,2.1,1.4,2.9l-1.2,1c-5,0-7.5-1.1-7.5-3.4v-0.3l1.2-1.6
		c-2.6-2.6-3.9-4.7-4.1-6.3C70.1,30.6,72.2,29.8,75.7,29.8z M75.4,39.9l0.3,0.4l0.4,0.2l0.7,0.3l-1.5-1.2L75.4,39.9z"/>
	<path fill="#FFFFFF" d="M85.4,21.2h1.1c0.7,0,1.5,3.3,2.5,10l0.4,1.2l3.4-0.3c4.8,0,7.2,0.6,7.2,1.8l-0.4,0.6l-0.2-0.3l-1,0.6
		L98,34.3h-0.2L97,34.7v-0.3l-0.2,0.3h-0.6v-0.3l-5.9,0.6c1.3,3.4,1.9,5.8,1.9,7.1c-0.6,1-1.3,1.6-2.1,1.8c-2.1,0-4.7-1.4-7.8-4.1
		c-0.7-1-1.2-1.8-1.3-2.3c0-1.5,1.9-2.9,5.7-4.4v-0.6C85.5,28.1,85,25,85,23.2v-1.5L85.4,21.2z M84.8,38.2v0.3
		c1.8,1.2,3,1.8,3.8,1.8H89c-0.7-2.9-1.3-4.4-1.7-4.4h-0.4l-1.3,0.6C85.6,37,85.3,37.6,84.8,38.2z"/>
	<path fill="#FFFFFF" d="M104.7,30c6.5,1.6,9.8,4.7,9.8,9.4c-2.8,2.9-5.2,4.3-7.2,4.3c-2.7,0-4.8-1.7-6.3-5.2
		c-0.5,0-0.9-1.4-1.1-4.2C99.8,31.5,101.5,30,104.7,30z M103.3,34.5l1.3,3.8l-1.3-2.2c1.1,2.9,2.4,4.5,3.9,5.1
		c2.8-1.1,4.2-2.2,4.2-3.2c-0.3-2.4-2.3-4-5.9-4.8C104,33.1,103.3,33.6,103.3,34.5z"/>
	<path fill="#FFFFFF" d="M124.4,29.9c3.6,0.8,5.4,2.6,5.4,5.3v0.5c0,2.6-1.8,5.1-5.4,7.5l-0.3-0.3l-0.2,0.3h-0.7l-0.7-0.5V43
		c0.6,5,1,8.7,1,11.1c0,0.4-0.5,1-1.6,1.7c-2.8,0-4.7-1.4-6-4.3c-0.5-1.5-0.7-2.9-0.7-4.1C115.1,35.7,118.2,29.9,124.4,29.9z
		 M117,40.5l0.2,0.3v1.7l-0.2,0.3l0.2,0.2v0.5l-0.2,0.3l0.2,0.2v0.3l-0.2,0.2c0.7,5.3,1.8,8,3.3,8.2l0.2-0.3l-0.2-0.7
		c0-2.1-0.6-7-1.7-14.7l0.7-0.5h0.2l0.3,0.3l0.2-0.3h0.3c1.3,0.5,1.9,1.8,1.9,3.9c0,0.7,0.1,1,0.4,1c2.7-2.3,4.1-4.1,4.1-5.3v-1.7
		c-0.7-1.1-1.7-1.7-3.1-1.7c-3,0-5.1,2.7-6.4,8H117z"/>
	<path fill="#FFFFFF" d="M136.1,13.3c1,0,1.9,0.9,2.7,2.7v0.8c-2.9,2.6-4.5,8.5-4.7,17.5V37l0.6,0.8c3.7-4.8,6.1-7.3,7.1-7.3
		c3,0,6.1,4.3,9.1,13c1.1,1.8,2.9,3.1,5.2,3.8v0.4l-1.9,1.9h-1.1c-2.6,0-5.7-4.6-9.3-13.7l-1.4-0.8c-0.7,0-2.9,2.7-6.8,8l-1.4,0.4
		c-2.4-1.3-3.5-4.8-3.5-10.3c0.9-9.1,2.2-15.7,4.1-19.8H136.1z"/>
	<path fill="#FFFFFF" d="M158.7,29.9h1.1c1.1,0,2,0.6,2.6,1.7v1.5c0,0.9-0.9,2.6-2.6,5.1c0,1.1-0.3,1.7-0.9,1.7h-0.9l-1.7-1.5v-0.3
		c0-0.7,0.9-2.3,2.6-5.1v-0.3c-3.2,2.3-4.9,4.5-4.9,6.6v0.2c0,0.9,0.4,1.4,1.1,1.7h1.1c1.2,0,5-0.8,11.2-2.4h0.6v0.5
		c-2.8,2.3-6.3,3.8-10.6,4.4h-2c-3.2-0.3-4.9-1.7-4.9-4.1v-0.9c0-2.7,2.2-5.5,6.6-8.5L158.7,29.9z"/>
	<path fill="#FFFFFF" d="M175.1,29.3c1.9,0.4,2.9,1.3,2.9,2.7c-0.4,0.8-0.8,1.3-1.1,1.3l-1.2-0.3l-4.6,10.3l-2,0.3h-0.6
		c-1.9-1.7-2.9-4.3-2.9-7.6v-1.1c0-2,0.3-3,0.9-3h0.9c1.1,0,1.8,2.1,2,6.3h0.3C171.6,32.3,173.5,29.3,175.1,29.3z"/>
	<path fill="#FFFFFF" d="M206.4,12.9c5.5,0,10,2.6,13.6,7.8l0.5,2.8c0,1.3-2.6,3.3-7.9,6.1c-4.2,2.4-7.9,3.6-11.2,3.6h-0.3
		c0,2.7,0.8,6,2.5,10c-0.2,0.7-0.8,1.2-1.9,1.6c-1.4-0.7-2.2-1.4-2.5-2.2l0.3-1.7c-2.1-9-3.2-15.9-3.3-20.5h-0.3
		c-0.4,0.1-1,1.3-1.6,3.6l0.3,0.8h-0.3l0.3,0.3v0.3c0,1-0.4,1.6-1.1,2h-0.3c-0.5,0-0.8-0.9-1.1-2.8v-1.1
		C192.3,17.6,197,14.1,206.4,12.9z M200.2,17.8v3.3l-0.3,0.3l0.3,0.8l0.3,7.5l0.8,0.6c6.5-1.5,11.3-3.8,14.4-6.9l1.4-2
		c-2.1-3.7-5.2-5.5-9.2-5.5H207C202.7,16.3,200.5,17,200.2,17.8z"/>
	<path fill="#FFFFFF" d="M222,29.9h1.1c1.1,0,2,0.6,2.6,1.7v1.5c0,0.9-0.9,2.6-2.6,5.1c0,1.1-0.3,1.7-0.9,1.7h-0.9l-1.7-1.5v-0.3
		c0-0.7,0.9-2.3,2.6-5.1v-0.3c-3.2,2.3-4.9,4.5-4.9,6.6v0.2c0,0.9,0.4,1.4,1.1,1.7h1.1c1.2,0,5-0.8,11.2-2.4h0.6v0.5
		c-2.8,2.3-6.3,3.8-10.6,4.4h-2c-3.2-0.3-4.9-1.7-4.9-4.1v-0.9c0-2.7,2.2-5.5,6.6-8.5L222,29.9z"/>
	<path fill="#FFFFFF" d="M238.4,29.3c1.9,0.4,2.9,1.3,2.9,2.7c-0.4,0.8-0.8,1.3-1.1,1.3l-1.2-0.3l-4.6,10.3l-2,0.3h-0.6
		c-1.9-1.7-2.9-4.3-2.9-7.6v-1.1c0-2,0.3-3,0.9-3h0.9c1.1,0,1.8,2.1,2,6.3h0.3C234.9,32.3,236.7,29.3,238.4,29.3z"/>
	<path fill="#FFFFFF" d="M251.3,29.3c1.9,0.4,2.9,1.3,2.9,2.7c-0.4,0.8-0.8,1.3-1.1,1.3l-1.2-0.3l-4.6,10.3l-2,0.3h-0.6
		c-1.9-1.7-2.9-4.3-2.9-7.6v-1.1c0-2,0.3-3,0.9-3h0.9c1.1,0,1.8,2.1,2,6.3h0.3C247.8,32.3,249.6,29.3,251.3,29.3z"/>
	<path fill="#FFFFFF" d="M256.7,30.4c1,0,1.7,0.5,2.2,1.6l-0.3,1l0.6,0.6l-1.1,5.6l0.6,1.6h0.8c4.3-1.6,6.4-3.9,6.4-6.9l1.4-1.9h1.1
		l1.1,1.3v1.6c0,1.6-0.7,4.3-2.2,8.2l-0.6,0.6l0.3,0.9l-2,5.4l0.3,0.3v0.3l-1.7,4.1c-0.9,1.6-1.8,1.7-2.6,0.5l-0.3-2.7l0.6-2.8
		l2.3-7h-0.3l-3.6,0.6c0,0.4,0.3,0.6,0.8,0.6l0.3,0.3v0.3h-0.6l-1.4-0.9h-1.7l-2.2-2.8l-0.6-3.8C255.2,32.6,256,30.4,256.7,30.4z"/>
</g>
</svg>
