<?xml version="1.0" encoding="utf-8"?>
<!-- Generator: Adobe Illustrator 17.1.0, SVG Export Plug-In . SVG Version: 6.00 Build 0)  -->
<!DOCTYPE svg PUBLIC "-//W3C//DTD SVG 1.1//EN" "http://www.w3.org/Graphics/SVG/1.1/DTD/svg11.dtd">
<svg version="1.1" id="Layer_1" xmlns="http://www.w3.org/2000/svg" xmlns:xlink="http://www.w3.org/1999/xlink" x="0px" y="0px"
	 viewBox="0 0 40.8 40.8" enable-background="new 0 0 40.8 40.8" xml:space="preserve">
<circle fill="#171F38" cx="20.4" cy="20.4" r="20.4"/>
<path fill="#FFFFFF" d="M31.1,14.9C30.7,15,30.7,39,7.2,29.1c0,0,5.9,0.3,7.3-2.5c0,0-3.3,0.1-4.8-3.7c0,0,1.6,0.2,2.2-0.2
	c0,0-4.9-1.6-4.1-5.8c0,0,1.5,1.6,2.1,1.3c0,0-4.1-4.4-1.7-7.4c0,0,8.5,7.4,11.6,5.4c0,0-0.9-5.1,3.5-6.5s5.9,1.2,6.2,1.4
	c0.3,0.3,3.2-1,3.4-1.2c0.2-0.3-1.2,2.7-2.1,2.9c-0.9,0.2,2.5-0.3,2.8-0.7C33.9,11.7,31.5,14.9,31.1,14.9z"/>
</svg>
